<svg id="Layer_1" width="400px" data-name="Layer 1" xmlns="http://www.w3.org/2000/svg" xmlns:xlink="http://www.w3.org/1999/xlink" viewBox="0 0 400 38.38"><defs><style>.cls-1{opacity:0.5;}.cls-2{fill:#fff;}.cls-3{fill:url(#linear-gradient);}.cls-4{fill:none;}.cls-5{fill:url(#linear-gradient-2);}</style><linearGradient id="linear-gradient" x1="1958.24" y1="-2208.55" x2="2088.82" y2="-2127.01" gradientTransform="matrix(0.15, 0, 0, -0.15, -268.12, -205.91)" gradientUnits="userSpaceOnUse"><stop offset="0" stop-color="#f5af19"/><stop offset="1" stop-color="#f12711"/></linearGradient><linearGradient id="linear-gradient-2" x1="2197.66" y1="-2271.89" x2="2224.94" y2="-2271.89" gradientTransform="matrix(0.15, 0, 0, -0.15, -288, -310.35)" xlink:href="#linear-gradient"/></defs><g class="cls-1"><path class="cls-2" d="M214.19,121.58a14.87,14.87,0,0,0-1.9-1.54l4.87,18.24a15.5,15.5,0,0,0,1.2-6.24A13.76,13.76,0,0,0,214.19,121.58Zm34.15-3.73-4.64,21.84-6.33-21.84h-7.6l-6.28,21.84-4.59-21.84h-7.2l.14.51a15.85,15.85,0,0,1,3.18,2.35A15,15,0,0,1,219.56,132a16.19,16.19,0,0,1-1.93,8l1.62,6.08h8l6.22-20.56,6.08,20.56h8l7.6-28.27Z" transform="translate(0 -108.35)"/><path class="cls-2" d="M281.67,130.92A13.87,13.87,0,0,0,280,124a12.2,12.2,0,0,0-4.84-4.77,14.91,14.91,0,0,0-7.33-1.74,15.23,15.23,0,0,0-7.35,1.74,12.12,12.12,0,0,0-5,5,16,16,0,0,0-1.79,7.73,15.79,15.79,0,0,0,1.79,7.7,12.36,12.36,0,0,0,5,5,16.17,16.17,0,0,0,13.76.43,12.54,12.54,0,0,0,4.72-3.67,12.16,12.16,0,0,0,2.4-5.31h-7.6a5.47,5.47,0,0,1-2.13,3.33,6.84,6.84,0,0,1-4.16,1.22,6.57,6.57,0,0,1-4.69-1.79q-1.89-1.78-2-5.56h20.72A13.48,13.48,0,0,0,281.67,130.92Zm-7.24-.72H260.7a7.3,7.3,0,0,1,2.19-5.26,7.07,7.07,0,0,1,4.9-1.78,6.89,6.89,0,0,1,4.82,1.78A6.44,6.44,0,0,1,274.43,130.2Z" transform="translate(0 -108.35)"/><path class="cls-2" d="M311,124.26a11.73,11.73,0,0,0-4.46-5,12.13,12.13,0,0,0-6.43-1.74,10.69,10.69,0,0,0-6.1,1.69,9.17,9.17,0,0,0-3.6,4.54V108.35h-7.2v37.76h7.2V140.2a9.29,9.29,0,0,0,3.6,4.57,10.62,10.62,0,0,0,6.1,1.71,12.22,12.22,0,0,0,6.43-1.73,11.79,11.79,0,0,0,4.46-5,19.36,19.36,0,0,0,0-15.46ZM303.26,138a7.74,7.74,0,0,1-10.8-.05,9.47,9.47,0,0,1,0-11.94,7.13,7.13,0,0,1,5.39-2.22,7.05,7.05,0,0,1,5.41,2.19,9.87,9.87,0,0,1,0,12Z" transform="translate(0 -108.35)"/></g><path class="cls-2" d="M50.05,127.43v16.35a2.93,2.93,0,0,1-2.94,2.95h-16a3,3,0,0,1-2.95-2.95h0V127.43h8.32v15.45H47v-6.06H42.35v-9.39Z" transform="translate(0 -108.35)"/><path class="cls-3" d="M50.05,111.63V127h-7.7v-8.51h4.51v-5.92H31.91v5.92h4.52V127H28.11V111.63a3,3,0,0,1,2.95-3H47.11A3,3,0,0,1,50.05,111.63Z" transform="translate(0 -108.35)"/><path class="cls-2" d="M73.66,140.17h3.41v6H72.55q-4.32,0-6.66-2t-2.33-6.55V123.86h-3V118h3v-7h7.16v7H77v5.84h-6.3v13.77a2.49,2.49,0,0,0,.66,2A3.45,3.45,0,0,0,73.66,140.17Z" transform="translate(0 -108.35)"/><path class="cls-2" d="M108.71,131.69a13.57,13.57,0,0,0-4-10.23,14,14,0,0,0-10.13-3.84,13.52,13.52,0,0,0-10.06,3.93Q80.68,125.5,80.67,132t3.86,10.53a13.36,13.36,0,0,0,10,4A14.08,14.08,0,0,0,103,144a12.35,12.35,0,0,0,4.72-6.55H100a5.9,5.9,0,0,1-5.48,3A6.3,6.3,0,0,1,90,138.85a6.77,6.77,0,0,1-2-4.42h20.52A19.43,19.43,0,0,0,108.71,131.69ZM88,129.81a7,7,0,0,1,2.16-4.47,6.34,6.34,0,0,1,4.5-1.68,6.7,6.7,0,0,1,4.59,1.68,6.1,6.1,0,0,1,2.06,4.47Z" transform="translate(0 -108.35)"/><polygon class="cls-2" points="121.51 37.81 114.35 37.81 114.35 0.22 121.51 0.22 121.51 21.71 131 9.67 140.7 9.67 128.21 23.89 140.7 37.81 131.16 37.81 121.51 26.07 121.51 37.81"/><path class="cls-2" d="M185.65,131.69a13.57,13.57,0,0,0-4-10.23,14,14,0,0,0-10.13-3.84,13.49,13.49,0,0,0-10.06,3.94q-3.88,3.93-3.88,10.49t3.85,10.53a13.35,13.35,0,0,0,10,4A14,14,0,0,0,180,144a12.39,12.39,0,0,0,4.73-6.55H177a5.94,5.94,0,0,1-5.49,3.05,6.28,6.28,0,0,1-4.51-1.68,6.69,6.69,0,0,1-2-4.42h20.51A16.64,16.64,0,0,0,185.65,131.69Zm-20.72-1.88a7.14,7.14,0,0,1,2.16-4.47,6.33,6.33,0,0,1,4.49-1.68,6.71,6.71,0,0,1,4.6,1.68,6.09,6.09,0,0,1,2,4.47Z" transform="translate(0 -108.35)"/><path class="cls-2" d="M214.19,121.58a14.15,14.15,0,0,0-10.33-4,14.42,14.42,0,0,0-10.33,4A13.76,13.76,0,0,0,189.36,132a14,14,0,0,0,4.12,10.52,14.16,14.16,0,0,0,10.3,4,14.4,14.4,0,0,0,10.38-4,13,13,0,0,0,3-4.27,15.34,15.34,0,0,0,1.21-6.24A13.76,13.76,0,0,0,214.19,121.58Zm-5.25,16.73a6.94,6.94,0,0,1-5.16,2.21,6.75,6.75,0,0,1-5.08-2.18,10.42,10.42,0,0,1,0-12.49,6.78,6.78,0,0,1,5.11-2.19,6.92,6.92,0,0,1,5.15,2.19,10.14,10.14,0,0,1,0,12.46Z" transform="translate(0 -108.35)"/><line class="cls-4" y1="0.25" x2="400" y2="0.25"/><line class="cls-4" y1="38.38" x2="400" y2="38.38"/><polygon class="cls-2" points="151.98 2.28 144.82 0.25 144.82 37.78 151.98 37.78 151.97 35.75 151.98 35.75 151.98 2.28"/><polygon class="cls-5" points="46.72 28.74 46.72 34.13 42.62 28.74 46.72 28.74"/><polyline class="cls-4" points="77.79 34.52 77.66 34.52 77.49 34.52 67.23 34.52 66.97 34.52"/></svg>