<svg width="400px" id="Layer_1" data-name="Layer 1" xmlns="http://www.w3.org/2000/svg" xmlns:xlink="http://www.w3.org/1999/xlink" viewBox="0 0 2658.85 255.09"><defs><style>.cls-1{opacity:0.5;}.cls-2{fill:#093c92;}.cls-3{fill:url(#linear-gradient);}.cls-4{fill:none;}.cls-5{fill:url(#linear-gradient-2);}</style><linearGradient id="linear-gradient" x1="43.86" y1="145.58" x2="174.44" y2="64.04" gradientUnits="userSpaceOnUse"><stop offset="0" stop-color="#f5af19"/><stop offset="1" stop-color="#f12711"/></linearGradient><linearGradient id="linear-gradient-2" x1="283.28" y1="208.92" x2="310.56" y2="208.92" xlink:href="#linear-gradient"/></defs><g class="cls-1"><path class="cls-2" d="M1291.63,113.91a97.83,97.83,0,0,0-12.66-10.2l32.38,121.22q8-18.37,8-41.47Q1319.31,140.25,1291.63,113.91Zm227-24.79-30.87,145.2-42.06-145.2h-50.55l-41.73,145.2-30.53-145.2h-47.84l.91,3.42a102.53,102.53,0,0,1,21.17,15.58c20,19,30.16,44.4,30.16,75.34,0,20.1-4.3,37.88-12.84,53.15l10.81,40.45h52.93l41.38-136.71L1460,277.06h52.93l50.55-187.94Z" transform="translate(132.14 -26.02)"/><path class="cls-2" d="M1740.18,176q0-25.78-11.36-46a81.36,81.36,0,0,0-32.23-31.72q-20.86-11.53-48.68-11.54-27.48,0-48.86,11.54a80.93,80.93,0,0,0-33.24,33.42q-11.88,21.87-11.88,51.39t11.88,51.23a82.27,82.27,0,0,0,33.24,33.41q21.38,11.72,48.86,11.71,23.4,0,42.57-8.82a83.24,83.24,0,0,0,31.38-24.43,80.89,80.89,0,0,0,16-35.28h-50.55A36.07,36.07,0,0,1,1673.18,233q-11,8.14-27.65,8.14-18.66,0-31.21-11.87t-13.57-37h137.74A91.49,91.49,0,0,0,1740.18,176ZM1692,171.22h-91.26q1.35-23.07,14.59-34.94t32.57-11.88q19,0,32,11.88T1692,171.22Z" transform="translate(132.14 -26.02)"/><path class="cls-2" d="M1935.08,131.7q-10.69-21.88-29.69-33.42t-42.74-11.54q-23.76,0-40.54,11.2a61.25,61.25,0,0,0-23.92,30.19V26h-47.84v251h47.84V237.71a62.1,62.1,0,0,0,23.92,30.36q16.79,11.37,40.54,11.37t42.74-11.54q19-11.52,29.69-33.41t10.68-51.4Q1945.76,153.58,1935.08,131.7ZM1883.68,223q-13.58,14.43-36,14.42-21.72,0-35.79-14.76t-14.08-39.52q0-25.09,14.08-39.86t35.79-14.76q22.4,0,36,14.59t13.57,40Q1897.25,208.53,1883.68,223Z" transform="translate(132.14 -26.02)"/></g><path class="cls-2" d="M200.58,152.82V261.47A19.63,19.63,0,0,1,181,281.11H74.33A19.63,19.63,0,0,1,54.7,261.47V152.82H110V255.49H180.2V215.24H149.34V152.82Z" transform="translate(132.14 -26.02)"/><path class="cls-3" d="M200.58,47.77V149.65H149.34V93.12h30V53.74H80V93.12h30v56.53H54.7V47.77A19.64,19.64,0,0,1,74.33,28.13H181A19.64,19.64,0,0,1,200.58,47.77Z" transform="translate(132.14 -26.02)"/><path class="cls-2" d="M357.52,237.47h22.62v39.84H350.09q-28.69,0-44.22-13.17t-15.53-43.55V129.1H270.42V90.28h19.92V44h47.6V90.28H379.8V129.1H337.94v91.49q0,9.12,4.38,13t15.2,3.88Z" transform="translate(132.14 -26.02)"/><path class="cls-2" d="M590.46,181.09q0-42.53-26.33-68T496.78,87.58q-41,0-66.85,26.16t-25.82,69.72q0,43.54,25.65,70T496.27,280q33.08,0,56.38-16.89T584,219.58H532.73q-11.82,20.25-36.46,20.25-18.24,0-30-11.14t-13.51-29.37H589.11A116.7,116.7,0,0,0,590.46,181.09ZM452.72,168.6q2.36-18.56,14.35-29.71T497,127.75q17.88,0,30.54,11.14t13.68,29.71Z" transform="translate(132.14 -26.02)"/><polygon class="cls-2" points="807.67 251.29 760.07 251.29 760.07 1.47 807.67 1.47 807.67 144.27 870.8 64.26 935.28 64.26 852.23 158.79 935.28 251.29 871.81 251.29 807.67 173.3 807.67 251.29"/><path class="cls-2" d="M1101.91,181.09q0-42.53-26.34-68t-67.35-25.49q-41,0-66.84,26.16t-25.82,69.72q0,43.54,25.64,70t66.51,26.5q33.09,0,56.39-16.89t31.39-43.54h-51.32q-11.82,20.25-36.46,20.25-18.23,0-30-11.14t-13.5-29.37h136.38A115.45,115.45,0,0,0,1101.91,181.09ZM964.17,168.6q2.36-18.56,14.34-29.71t29.88-11.14q17.88,0,30.55,11.14t13.67,29.71Z" transform="translate(132.14 -26.02)"/><path class="cls-2" d="M1291.63,113.91a97.83,97.83,0,0,0-12.66-10.2q-23.94-16.12-56-16.13-41,0-68.7,26.33t-27.69,69.55q0,43.22,27.34,69.88T1222.42,280q41.19,0,69-26.67a86.79,86.79,0,0,0,19.89-28.41q8-18.37,8-41.47Q1319.31,140.25,1291.63,113.91Zm-34.94,111.24q-14.37,14.68-34.27,14.68a44.9,44.9,0,0,1-33.76-14.51q-13.85-14.5-13.84-41.53t13.84-41.52a45.07,45.07,0,0,1,33.93-14.52,46.11,46.11,0,0,1,34.26,14.52Q1271,156.79,1271,183.62T1256.69,225.15Z" transform="translate(132.14 -26.02)"/><line class="cls-4" y1="1.63" x2="2658.85" y2="1.63"/><line class="cls-4" y1="255.09" x2="2658.85" y2="255.09"/><polygon class="cls-2" points="1010.22 15.13 962.62 1.63 962.62 251.13 1010.22 251.13 1010.2 237.63 1010.22 237.63 1010.22 15.13"/><polygon class="cls-5" points="310.56 190.99 310.56 226.85 283.28 190.99 310.56 190.99"/><polyline class="cls-4" points="517.07 229.47 516.18 229.47 515.08 229.47 446.86 229.47 445.15 229.47"/></svg>